<svg xmlns="http://www.w3.org/2000/svg" viewBox="0 0 1254 1254" width="1254" height="1254">
  <path d="M 278 239 L 263 253 L 240 282 L 228 303 L 220 322 L 212 349 L 208 373 L 206 399 L 207 867 L 212 901 L 224 939 L 238 966 L 258 993 L 274 1009 L 293 1024 L 309 1034 L 332 1045 L 349 1051 L 374 1057 L 394 1060 L 427 1062 L 829 1062 L 860 1060 L 898 1053 L 929 1042 L 950 1031 L 965 1021 L 984 1005 L 1009 976 L 1022 955 L 1030 938 L 1041 903 L 1047 857 L 1046 381 L 1041 348 L 1029 311 L 1016 286 L 997 260 L 979 242 L 964 230 L 949 220 L 930 210 L 893 197 L 873 193 L 844 190 L 397 191 L 365 196 L 333 206 L 308 218 Z M 370 649 L 372 648 L 378 657 L 385 664 L 406 679 L 432 692 L 463 703 L 486 709 L 524 716 L 564 720 L 594 720 L 596 722 L 594 742 L 595 760 L 601 787 L 612 813 L 623 830 L 633 841 L 629 843 L 590 844 L 550 842 L 511 837 L 478 830 L 452 822 L 426 811 L 403 797 L 384 780 L 377 770 L 371 756 Z M 655 664 L 673 647 L 694 634 L 712 627 L 741 622 L 763 623 L 787 629 L 806 638 L 827 654 L 840 668 L 850 683 L 857 698 L 864 724 L 865 750 L 863 765 L 858 783 L 850 801 L 919 868 L 923 878 L 923 885 L 919 896 L 910 905 L 899 909 L 890 909 L 881 905 L 814 840 L 798 849 L 776 857 L 760 860 L 731 860 L 715 857 L 693 849 L 675 838 L 664 829 L 651 815 L 642 802 L 630 774 L 626 753 L 626 731 L 630 710 L 642 682 Z M 370 492 L 371 491 L 389 511 L 410 525 L 440 539 L 471 549 L 501 556 L 543 562 L 569 564 L 625 564 L 682 558 L 720 550 L 746 542 L 764 535 L 788 523 L 804 512 L 819 497 L 823 491 L 824 611 L 822 612 L 806 603 L 787 596 L 760 591 L 725 592 L 691 601 L 667 613 L 640 634 L 620 658 L 605 687 L 573 687 L 536 684 L 509 680 L 470 671 L 432 657 L 410 645 L 396 635 L 381 620 L 373 606 L 370 593 Z M 370 423 L 379 403 L 395 386 L 416 372 L 444 359 L 492 345 L 528 339 L 573 335 L 626 335 L 671 339 L 714 347 L 747 357 L 776 370 L 799 385 L 816 403 L 822 414 L 824 422 L 824 439 L 822 447 L 814 461 L 795 480 L 773 494 L 741 508 L 707 518 L 676 524 L 630 529 L 589 530 L 541 527 L 501 521 L 462 511 L 438 502 L 411 488 L 398 479 L 384 466 L 376 455 L 371 443 Z" fill="#111111" fill-rule="evenodd"/>
  <path d="M 734 663 L 718 667 L 705 673 L 689 685 L 681 694 L 673 707 L 667 724 L 665 737 L 666 755 L 670 770 L 677 784 L 682 791 L 698 806 L 715 815 L 728 819 L 757 820 L 773 816 L 787 809 L 797 802 L 810 788 L 818 774 L 823 759 L 824 729 L 820 714 L 812 698 L 806 690 L 789 675 L 778 669 L 763 664 Z" fill="#111111"/>
</svg>
